<svg height="511pt" viewBox="0 -52 511.99601 511" width="511pt" xmlns="http://www.w3.org/2000/svg"><path d="m498.136719 251.324219c4.394531-7.15625 7.492187-14.386719 9.261719-21.652344 10.035156-41.25.578124-88.265625.171874-90.25-.945312-4.601563-3.992187-8.496094-8.234374-10.515625-2.777344-1.324219-5.851563-1.730469-8.820313-1.257812 4.046875-13.148438 5.289063-25.40625 3.667969-36.640626-6.058594-42.023437-32.351563-82.105468-33.464844-83.792968-2.597656-3.917969-6.878906-6.394532-11.570312-6.6875-4.699219-.292969-9.246094 1.628906-12.3125 5.191406-.460938.535156-11.410157 13.34375-21.648438 31.332031-14.484375 25.441407-20.394531 48.296875-17.5625 67.929688.078125.550781.175781 1.101562.261719 1.652343-3.222657-2.445312-5.289063-3.875-5.640625-4.117187-3.839844-2.628906-8.675782-3.324219-13.097656-1.894531-4.425782 1.433594-7.933594 4.835937-9.5 9.214844-.234376.660156-5.816407 16.390624-8.859376 36.6875-4.300781 28.707031-1.542968 52.019531 8.199219 69.289062 10.921875 19.367188 26.84375 36.222656 39.726563 48.03125.109375 1.605469.234375 3.171875.367187 4.707031-5.261719 3.175781-9.925781 6.757813-13.925781 10.765625-24.019531 24.070313-38.757812 57.628906-44.046875 71.125-28.636719 17.472656-61.496094 26.691406-95.328125 26.691406-33.625 0-66.253906-9.089843-94.761719-26.34375-5.164062-13.253906-19.949219-47.1875-44.179687-71.46875-4.003906-4.011718-8.664063-7.59375-13.925782-10.765624.132813-1.539063.257813-3.105469.367188-4.710938 12.90625-11.832031 28.8125-28.683594 39.726562-48.027344 9.738282-17.273437 12.5-40.585937 8.195313-69.292968-3.039063-20.296876-8.621094-36.027344-8.859375-36.6875-1.566406-4.378907-5.074219-7.78125-9.496094-9.214844-4.425781-1.433594-9.261718-.734375-13.097656 1.894531-.355469.242187-2.433594 1.679687-5.667969 4.136719.074219-.476563.15625-.949219.226563-1.421875 2.828125-19.632813-3.078125-42.488281-17.5625-67.929688-10.242188-17.988281-21.191406-30.792969-21.652344-31.332031-3.0625-3.5625-7.617188-5.484375-12.3125-5.191406-4.691406.292968-8.972656 2.769531-11.566406 6.6875-1.117188 1.6875-27.40625 41.769531-33.464844 83.792968-1.609375 11.15625-.402344 23.316407 3.574219 36.359376-2.917969-.433594-5.933594-.015626-8.664063 1.285156-4.242187 2.023437-7.289062 5.917968-8.234375 10.519531-.40625 1.980469-9.863281 48.996094.171875 90.25 1.769532 7.261719 4.867188 14.492187 9.261719 21.652344-4.640625.355469-8.855469 2.835937-11.410156 6.734375-2.570313 3.925781-3.152344 8.832031-1.578125 13.253906.679687 1.902344 16.984375 47.003906 46.953125 77.039062 14.007812 14.035157 35.699219 22.953126 64.476562 26.496094 10.398438 1.285156 19.828125 1.605469 26.65625 1.605469 2.5 0 4.648438-.042969 6.371094-.101563 33.234375 20.15625 71.269531 30.78125 110.453125 30.78125 39.171875 0 77.234375-10.636718 110.472656-30.792968 1.785156.058594 4.078125.109375 6.785156.109375 6.828126 0 16.257813-.320313 26.65625-1.601563 28.777344-3.542968 50.472657-12.460937 64.480469-26.496094v-.003906c29.96875-30.03125 46.269531-75.132812 46.949219-77.035156 1.574219-4.421875.992188-9.328125-1.578125-13.253906-2.554687-3.898438-6.769531-6.378906-11.410156-6.734375zm-444.332031 1.632812c-10.835938-10.449219-17.753907-20.890625-20.058594-30.375-4.582032-18.832031-4.183594-39.886719-2.855469-55.230469 8.503906 6.015626 17.828125 13.652344 25.363281 22.15625.503906.703126 1.070313 1.367188 1.699219 1.980469 5.859375 6.988281 10.421875 14.503907 12.28125 22.160157 3.296875 13.550781 3.890625 28.25 3.476563 40.71875-.136719.773437-.203126 1.558593-.214844 2.339843-6.128906-1.5625-12.699219-2.8125-19.691406-3.75zm65.964843-112.175781c3.953125 19.035156 6.128907 44.292969-2.894531 60.296875-4.144531 7.34375-9.257812 14.332031-14.65625 20.75-.683594-5.109375-1.609375-10.226563-2.835938-15.269531-2.242187-9.230469-6.648437-18.398438-13.121093-27.441406.277343-.464844.5625-.957032.851562-1.453126 9.417969-14.839843 22.351563-27.820312 32.65625-36.882812zm-72.332031-45.242188c2.761719-19.15625 10.957031-38.507812 17.898438-52.238281 10.652343 16.570313 21.886718 39.554688 19.277343 57.648438-2.765625 19.171875-11.0625 38.324219-18.070312 51.832031-10.566407-16.3125-21.726563-39.054688-19.105469-57.242188zm21.617188 231.621094c-13.675782-13.703125-24.25-31.898437-31.070313-45.703125 13.242187.929688 28.980469 3.398438 41.78125 8.878907.703125.382812 1.441406.71875 2.210937.988281 5.261719 2.46875 9.941407 5.492187 13.625 9.183593 13.679688 13.707032 24.027344 31.847657 30.625 45.5625-19.390624-1.3125-44.273437-5.984374-57.171874-18.910156zm369.320312-70.421875c-.570312-12.941406-.128906-28.664062 3.382812-43.085937 1.964844-8.085938 6.972657-16.035156 13.355469-23.371094.054688-.0625.113281-.125.164063-.1875 7.617187-8.714844 17.160156-16.558594 25.847656-22.71875 1.328125 15.308594 1.71875 36.3125-2.878906 55.207031-2.308594 9.488281-9.222656 19.925781-20.058594 30.375-7.039062.941407-13.648438 2.203125-19.8125 3.78125zm8.21875-213.691406c6.941406 13.734375 15.136719 33.089844 17.894531 52.242187 2.613281 18.101563-8.566406 40.882813-19.136719 57.226563-6.992187-13.46875-15.261718-32.574219-18.035156-51.816406-2.609375-18.097657 8.625-41.082031 19.277344-57.652344zm-51.476562 158.027344c-8.984376-15.925781-6.800782-41.226563-2.859376-60.292969 10.605469 9.324219 24.003907 22.804688 33.507813 38.285156-6.492187 9.058594-10.910156 18.242188-13.160156 27.492188-1.226563 5.039062-2.148438 10.15625-2.832031 15.269531-5.398438-6.414063-10.511719-13.40625-14.65625-20.753906zm47.820312 126.085937c-12.898438 12.925782-37.785156 17.601563-57.171875 18.910156 6.601563-13.71875 16.945313-31.855468 30.625-45.5625 10.730469-10.753906 29.898437-15.84375 47.335937-18.046874 1.660157.097656 3.335938-.097657 4.953126-.554688 1.8125-.179688 3.59375-.328125 5.328124-.449219-6.820312 13.804688-17.394531 32-31.070312 45.703125zm0 0"/></svg>